{
  "asset": {
    "version": "2.0",
    "generator": "THREE.GLTFExporter"
  },
  "scenes": [
    {
      "name": "Scene",
      "nodes": [
        12
      ]
    }
  ],
  "scene": 0,
  "nodes": [
    {
      "name": "buffer-0-mesh-0",
      "mesh": 0
    },
    {
      "name": "buffer-0-mesh-0_1",
      "mesh": 1
    },
    {
      "name": "buffer-0-mesh-0_2",
      "mesh": 2
    },
    {
      "name": "node-0",
      "extras": {
        "name": "node-0"
      },
      "children": [
        0,
        1,
        2
      ]
    },
    {
      "matrix": [
        1,
        0,
        0,
        0,
        0,
        1,
        0,
        0,
        0,
        0,
        1,
        0,
        -0.02708963869197046,
        0.31496968510261,
        -24.05787892989078,
        1
      ],
      "children": [
        3
      ]
    },
    {
      "matrix": [
        1,
        0,
        0,
        0,
        0,
        2.220446049250313e-16,
        -1,
        0,
        0,
        1,
        2.220446049250313e-16,
        0,
        0.02708963869197046,
        -0.31496968510261,
        24.05787892989078,
        1
      ],
      "extras": {
        "isTransformNode": 1
      },
      "children": [
        4
      ]
    },
    {
      "children": [
        5
      ]
    },
    {
      "matrix": [
        1,
        0,
        0,
        0,
        0,
        1,
        0,
        0,
        0,
        0,
        1,
        0,
        0,
        0,
        -1,
        1
      ]
    },
    {
      "matrix": [
        1,
        0,
        0,
        0,
        0,
        1,
        0,
        0,
        0,
        0,
        1,
        0,
        -108.4467154277255,
        54.22335771386273,
        54.22335771386273,
        1
      ],
      "name": "headLightNode",
      "extras": {
        "name": "headLightNode",
        "isHeadLight": 1
      },
      "children": [
        7
      ],
      "extensions": {
        "KHR_lights_punctual": {
          "light": 0
        }
      }
    },
    {
      "matrix": [
        0.6783311053081713,
        -2.7755575615628914e-17,
        -0.7347563620489412,
        0,
        -0.27774165931599837,
        0.9258035088297898,
        -0.2564126239459464,
        0,
        0.6802400181199213,
        0.37800510980468166,
        0.6280013174426946,
        0,
        183.648939454793,
        116.8159234618215,
        215.1022890672427,
        1
      ],
      "camera": 0,
      "children": [
        8
      ]
    },
    {
      "matrix": [
        1,
        0,
        0,
        0,
        0,
        1,
        0,
        0,
        0,
        0,
        1,
        0,
        0,
        0,
        -1,
        1
      ]
    },
    {
      "matrix": [
        0,
        0,
        0,
        0,
        0,
        0,
        0,
        0,
        -44.71591804158785,
        89.4318360831757,
        -44.71591804158786,
        0,
        -123.389309408114,
        205.2907348630912,
        -85.42629338793053,
        1
      ],
      "name": "keyLightNode",
      "extras": {
        "name": "keyLightNode",
        "isKeyLight": 1
      },
      "children": [
        10
      ],
      "extensions": {
        "KHR_lights_punctual": {
          "light": 1
        }
      }
    },
    {
      "matrix": [
        0.1,
        0,
        0,
        0,
        0,
        0.1,
        0,
        0,
        0,
        0,
        0.1,
        0,
        0,
        4.1551063238291714,
        0,
        1
      ],
      "name": "scene-0",
      "extras": {
        "GOOGLE_camera_index": {
          "cameraIndex": 0,
          "nodeIndex": 4
        },
        "GOOGLE_geometry_data": {
          "stats": {
            "centroid": [
              -13.85812682611129,
              -13.77163030091422,
              24.10488919407218
            ],
            "radius": 108.4467154277255,
            "stdev": 44.08856415808076
          },
          "visualCenterPoint": [
            0.02708963869197046,
            -0.31496968510261,
            24.05787892989078
          ]
        },
        "GOOGLE_hemi_light": {
          "groundColor": [
            0.9137254901960784,
            0.1176470588235294,
            0.3882352941176471
          ]
        },
        "gltfExtensions": {
          "GOOGLE_backgrounds": {
            "color": [
              0.9137254901960784,
              0.1176470588235294,
              0.3882352941176471
            ]
          },
          "GOOGLE_camera_settings": {}
        }
      },
      "children": [
        6,
        9,
        11
      ]
    }
  ],
  "bufferViews": [
    {
      "buffer": 0,
      "byteOffset": 0,
      "byteLength": 30096,
      "target": 34962,
      "byteStride": 12
    },
    {
      "buffer": 0,
      "byteOffset": 30096,
      "byteLength": 30096,
      "target": 34962,
      "byteStride": 12
    },
    {
      "buffer": 0,
      "byteOffset": 60192,
      "byteLength": 20064,
      "target": 34962,
      "byteStride": 8
    },
    {
      "buffer": 0,
      "byteOffset": 80256,
      "byteLength": 5016,
      "target": 34963
    },
    {
      "buffer": 0,
      "byteOffset": 85272,
      "byteLength": 72,
      "target": 34962,
      "byteStride": 12
    },
    {
      "buffer": 0,
      "byteOffset": 85344,
      "byteLength": 72,
      "target": 34962,
      "byteStride": 12
    },
    {
      "buffer": 0,
      "byteOffset": 85416,
      "byteLength": 48,
      "target": 34962,
      "byteStride": 8
    },
    {
      "buffer": 0,
      "byteOffset": 85464,
      "byteLength": 12,
      "target": 34963
    },
    {
      "buffer": 0,
      "byteOffset": 85476,
      "byteLength": 72,
      "target": 34962,
      "byteStride": 12
    },
    {
      "buffer": 0,
      "byteOffset": 85548,
      "byteLength": 72,
      "target": 34962,
      "byteStride": 12
    },
    {
      "buffer": 0,
      "byteOffset": 85620,
      "byteLength": 48,
      "target": 34962,
      "byteStride": 8
    },
    {
      "buffer": 0,
      "byteOffset": 85668,
      "byteLength": 12,
      "target": 34963
    }
  ],
  "buffers": [
    {
      "byteLength": 85680,
      "uri": "data:application/octet-stream;base64,"
    }
  ],
  "accessors": [
    {
      "bufferView": 0,
      "componentType": 5126,
      "count": 2508,
      "max": [
        1,
        1,
        1
      ],
      "min": [
        -1,
        -1,
        -1
      ],
      "type": "VEC3"
    },
    {
      "bufferView": 1,
      "componentType": 5126,
      "count": 2508,
      "max": [
        42.815834045410156,
        63.064117431640625,
        85.58546447753906
      ],
      "min": [
        -42.815834045410156,
        -63.064117431640625,
        0.11100400239229202
      ],
      "type": "VEC3"
    },
    {
      "bufferView": 2,
      "componentType": 5126,
      "count": 2508,
      "max": [
        0.875,
        0
      ],
      "min": [
        0.125,
        -1
      ],
      "type": "VEC2"
    },
    {
      "bufferView": 3,
      "componentType": 5123,
      "count": 2508,
      "max": [
        2507
      ],
      "min": [
        0
      ],
      "type": "SCALAR"
    },
    {
      "bufferView": 4,
      "componentType": 5126,
      "count": 6,
      "max": [
        1,
        0,
        0
      ],
      "min": [
        1,
        0,
        0
      ],
      "type": "VEC3"
    },
    {
      "bufferView": 5,
      "componentType": 5126,
      "count": 6,
      "max": [
        -37.943702697753906,
        55.041053771972656,
        78.61723327636719
      ],
      "min": [
        -37.943702697753906,
        -55.041053771972656,
        14.925783157348633
      ],
      "type": "VEC3"
    },
    {
      "bufferView": 6,
      "componentType": 5126,
      "count": 6,
      "max": [
        0.875,
        0
      ],
      "min": [
        0.625,
        -0.25
      ],
      "type": "VEC2"
    },
    {
      "bufferView": 7,
      "componentType": 5123,
      "count": 6,
      "max": [
        5
      ],
      "min": [
        0
      ],
      "type": "SCALAR"
    },
    {
      "bufferView": 8,
      "componentType": 5126,
      "count": 6,
      "max": [
        0,
        0,
        1
      ],
      "min": [
        0,
        0,
        1
      ],
      "type": "VEC3"
    },
    {
      "bufferView": 9,
      "componentType": 5126,
      "count": 6,
      "max": [
        8.810478210449219,
        57.23854064941406,
        5.508963108062744
      ],
      "min": [
        -29.267860412597656,
        -57.238529205322266,
        5.508963108062744
      ],
      "type": "VEC3"
    },
    {
      "bufferView": 10,
      "componentType": 5126,
      "count": 6,
      "max": [
        0.375,
        0
      ],
      "min": [
        0.125,
        -0.13213400542736053
      ],
      "type": "VEC2"
    },
    {
      "bufferView": 11,
      "componentType": 5123,
      "count": 6,
      "max": [
        5
      ],
      "min": [
        0
      ],
      "type": "SCALAR"
    }
  ],
  "materials": [
    {
      "pbrMetallicRoughness": {
        "baseColorFactor": [
          0.01,
          0.01,
          0.01,
          1
        ],
        "metallicFactor": 0,
        "roughnessFactor": 0.999817028974926
      },
      "doubleSided": true,
      "name": "Ambulance_01:blinn3SG"
    },
    {
      "pbrMetallicRoughness": {
        "baseColorFactor": [
          0,
          0.33,
          0.78,
          1
        ],
        "metallicFactor": 0,
        "roughnessFactor": 0.9699476628648295
      },
      "doubleSided": true,
      "name": "blinn11SG"
    },
    {
      "pbrMetallicRoughness": {
        "baseColorFactor": [
          0.34,
          0.34,
          0.34,
          1
        ],
        "metallicFactor": 0,
        "roughnessFactor": 0.999817028974926
      },
      "doubleSided": true,
      "name": "Ambulance_01:blinn6SG"
    }
  ],
  "meshes": [
    {
      "primitives": [
        {
          "mode": 4,
          "attributes": {
            "NORMAL": 0,
            "POSITION": 1,
            "TEXCOORD_0": 2
          },
          "indices": 3,
          "material": 0
        }
      ]
    },
    {
      "primitives": [
        {
          "mode": 4,
          "attributes": {
            "NORMAL": 4,
            "POSITION": 5,
            "TEXCOORD_0": 6
          },
          "indices": 7,
          "material": 1
        }
      ]
    },
    {
      "primitives": [
        {
          "mode": 4,
          "attributes": {
            "NORMAL": 8,
            "POSITION": 9,
            "TEXCOORD_0": 10
          },
          "indices": 11,
          "material": 2
        }
      ]
    }
  ],
  "cameras": [
    {
      "type": "perspective",
      "perspective": {
        "aspectRatio": 1,
        "yfov": 0.7853981633974483,
        "zfar": 2000000,
        "znear": 0.1000000014901161
      }
    }
  ],
  "extensions": {
    "KHR_lights_punctual": {
      "lights": [
        {
          "name": "headLightNode",
          "color": [
            1,
            0.9333333333333333,
            0.8666666666666667
          ],
          "intensity": 0.25,
          "type": "directional"
        },
        {
          "name": "keyLightNode",
          "color": [
            1,
            0.9333333333333333,
            0.8666666666666667
          ],
          "intensity": 0.324999988079071,
          "type": "directional"
        }
      ]
    }
  },
  "extensionsUsed": [
    "KHR_lights_punctual"
  ]
}